<svg width="180" height="180" viewBox="0 0 180 180" fill="none" xmlns="http://www.w3.org/2000/svg">
<mask id="mask0_1_127" style="mask-type:alpha" maskUnits="userSpaceOnUse" x="0" y="0" width="180" height="180">
<path d="M0 18C0 8.05888 8.05888 0 18 0H162C171.941 0 180 8.05888 180 18V162C180 171.941 171.941 180 162 180H18C8.05888 180 0 171.941 0 162V18Z" fill="#42E961"/>
</mask>
<g mask="url(#mask0_1_127)">
<path d="M96.8965 0C85.9012 11.2108 70.0001 38.54 70 53.457C70 71.265 83.4592 85.9226 100.748 87.7949L100.67 89H109.33L109.242 87.6729C126.052 85.3589 139 70.9235 139 53.457C139 38.54 123.099 11.2108 112.104 0H162C171.941 2.31933e-06 180 8.05888 180 18V74.502C164.492 73.4419 133.403 79.2197 122.143 88.9424C108.839 100.429 106.513 119.902 116.132 134.107L115.31 134.732L120.688 140.96L121.425 140.237C134.077 151.824 153.68 152.36 166.983 140.873C171.696 136.804 176.23 129.199 180 120.594V162C180 171.941 171.941 180 162 180H18C8.05888 180 1.44967e-07 171.941 0 162V18C2.31948e-06 8.05888 8.05888 1.44958e-07 18 0H96.8965ZM98.6045 145.972L95.4297 179.75H114.627L111.452 145.972H98.6045ZM89.4258 91.3408C75.8004 78.1757 29.7056 69.5981 23.8379 75.6709C17.9702 81.7437 28.1257 127.517 41.751 140.683C54.391 152.896 73.9936 153.455 87.2734 142.595L87.9697 143.357L93.6865 137.441L92.9004 136.771C103.299 123.126 102.066 103.554 89.4258 91.3408ZM92.9004 136.771C92.0899 137.835 91.2107 138.864 90.2588 139.85C89.3069 140.835 88.3084 141.748 87.2734 142.595L43.5742 94.7412L92.9004 136.771ZM121.425 140.237C120.439 139.334 119.493 138.366 118.598 137.329C117.702 136.292 116.882 135.215 116.132 134.107L167.732 94.9014L121.425 140.237ZM180 74.502C184.242 74.7919 187.318 75.5922 188.504 76.9648C192.209 81.2561 187.702 103.012 180 120.594V74.502ZM109.242 87.6729C107.692 87.8863 106.109 88 104.5 88C103.232 88 101.981 87.9284 100.748 87.7949L105 23L109.242 87.6729ZM104.5 -5C106.352 -5 109.037 -3.12681 112.104 0H96.8965C99.9632 -3.12681 102.648 -5 104.5 -5Z" fill="#42E961"/>
</g>
<path d="M86.6289 136.226L91.8369 136.571L92.0449 136.333L92.3564 136.605L93.1641 136.66L93.4785 136.3L93.9502 136.712L101.536 137.215L101.556 138.215L93.5947 137.688L88.4971 143.521L90.2803 150.477L89.2939 150.643L87.5957 144.016L87.1084 143.591L87.4014 143.256L87.1709 142.36L86.9492 142.166L87.083 142.013L85.8428 137.173L85.6328 137.159L85.6162 136.287L85.4736 135.734L86.46 135.568L86.6289 136.226ZM123.317 133.23L123.194 133.771L123.201 134.636L122.996 134.643L121.927 139.35L122.082 139.527L121.837 139.741L121.649 140.569L121.967 140.933L121.467 141.369L119.987 147.881L119.007 147.687L120.562 140.845L115.396 134.933L107.591 135.229L107.582 134.229L115.032 133.946L115.503 133.534L115.836 133.916L116.593 133.887L116.911 133.608L117.136 133.866L122.191 133.673L122.336 133.037L123.317 133.23ZM87.8779 141.103L91.0117 137.516L86.8896 137.241L87.8779 141.103ZM116.681 134.884L120.836 139.639L120.839 139.624L116.696 134.883L116.681 134.884ZM117.981 134.834L121.113 138.418L121.962 134.683L117.981 134.834ZM105.334 82.4463L106 83L105.868 83.1572L108.75 87H109V87.333L109.5 88H110V88.666L114 94L113.2 94.5996L109.001 89H101L96 95L95.2314 94.3594L100 88.6367V88H100.531L101 87.4375V87H101.365L104.594 83.125L104.2 82.5996L105 82L105.334 82.4463ZM102.667 87H107.501L105.21 83.9463L102.667 87Z" fill="#42E961"/>
</svg>
